# xmcd
#
# Track frame offsets:
#	150
#	17660
#	30108
#	46513
#	65247
#	80926
#	95070
#	108321
#	123030
#	135746
#	144079
#	160546
#	181475
#	194376
#	214597
#	229720
#
# Disc length: 3281 seconds
#
# Revision: 2
# Processed by: cddbd v1.5.2PL0 Copyright (c) Steve Scherf et al.
# Submitted via: EasyCDDAExtractor 10.2.0.1
#
DISCID=cc0ccf10
DTITLE=Flatlanders - Live at The One Knite June 8th 1972  (2004)
DYEAR=1972
DGENRE=Country
TTITLE0=The Stars In My Life
TTITLE1=Honky Tonk Blues
TTITLE2=San Francisco Bay Blues
TTITLE3=Long Time Gone
TTITLE4=Settin' The Woods On Fire
TTITLE5=Love, Please Come Home
TTITLE6=You've Never Seen Me Cry
TTITLE7=Lone Snake Moan
TTITLE8=I Know You
TTITLE9=Waitin' Around To Die
TTITLE10=Hesitation Blues
TTITLE11=Tecumseh Valley
TTITLE12=Walkin' Down The Line
TTITLE13=So I'll Run
TTITLE14=Bring It On Home To Me
TTITLE15=Jole Blon
EXTD=The Flatlanders:\nJimmie Dale Gilmore\nJoe Ely\nButch Hancock\n\nRecorded
EXTD=live at The One Knite, Austin, Texas, *th June 1972 by Gary Oliver\n\nNe
EXTD=w West Records
EXTT0=
EXTT1=
EXTT2=
EXTT3=
EXTT4=
EXTT5=
EXTT6=
EXTT7=
EXTT8=
EXTT9=
EXTT10=
EXTT11=
EXTT12=
EXTT13=
EXTT14=
EXTT15=
PLAYORDER=
